<svg xmlns="http://www.w3.org/2000/svg" version="1.1" xmlns:xlink="http://www.w3.org/1999/xlink" xmlns:svgjs="http://svgjs.dev/svgjs" width="2000" height="1276" viewBox="0 0 2000 1276"><g transform="matrix(1,0,0,1,-2.446808510638334,-0.26062619000003906)"><svg viewBox="0 0 376 240" data-background-color="#110f10" preserveAspectRatio="xMidYMid meet" height="1276" width="2000" xmlns="http://www.w3.org/2000/svg" xmlns:xlink="http://www.w3.org/1999/xlink"><g id="tight-bounds" transform="matrix(1,0,0,1,0.46023999999999887,0.04952059999999392)"><svg viewBox="0 0 375.07953 239.9014588" height="239.9014588" width="375.07953"><g><svg></svg></g><g><svg viewBox="0 0 375.07953 239.9014588" height="239.9014588" width="375.07953"><g transform="matrix(1,0,0,1,-10.22024,-7.29849999999999)"><path d="M10.22 239.901v-232.603h375.08v232.603l-16.818 0 0-4.171h12.647v-224.26h-366.738v224.26h26.215l0 4.171z" fill="#3cb371" fill-rule="nonzero" stroke="none" stroke-width="1" stroke-linecap="butt" stroke-linejoin="miter" stroke-miterlimit="10" stroke-dasharray="" stroke-dashoffset="0" font-family="none" font-weight="none" font-size="none" text-anchor="none" style="mix-blend-mode: normal" data-fill-palette-color="tertiary"></path><g><path transform="translate(53.3241,242.89647) scale(0.44642,0.44642)" d="M22.75-10.21h-19.65c-0.26 2.413 0.207 4.337 1.4 5.77 1.2 1.433 3.02 2.15 5.46 2.15v0c1.693 0 3.28-0.35 4.76-1.05 1.48-0.7 2.677-1.573 3.59-2.62v0l1.98 1.61c-1.467 1.6-3.083 2.817-4.85 3.65-1.767 0.84-3.797 1.26-6.09 1.26v0c-1.773 0-3.323-0.293-4.65-0.88-1.327-0.587-2.417-1.403-3.27-2.45-0.853-1.053-1.423-2.303-1.71-3.75-0.287-1.447-0.227-3.057 0.18-4.83v0c0.36-1.727 0.96-3.32 1.8-4.78 0.833-1.453 1.867-2.713 3.1-3.78 1.227-1.067 2.627-1.897 4.2-2.49 1.567-0.593 3.23-0.89 4.99-0.89v0c1.933 0 3.553 0.327 4.86 0.98 1.3 0.647 2.317 1.543 3.05 2.69 0.733 1.147 1.157 2.52 1.27 4.12 0.113 1.593-0.027 3.357-0.42 5.29zM3.76-13.06h16.04c0.16-2.493-0.35-4.35-1.53-5.57-1.18-1.22-2.82-1.83-4.92-1.83v0c-1.073 0-2.1 0.177-3.08 0.53-0.987 0.347-1.897 0.847-2.73 1.5-0.827 0.647-1.573 1.43-2.24 2.35-0.667 0.92-1.18 1.927-1.54 3.02zM48.8-2.86l-0.61 2.86h-9.05l0.61-2.86h2.14l-2.8-10.45-7.25 10.45h2.14l-0.58 2.86h-9.06l0.61-2.86h3.1l9.69-13.18-4.05-12.96h-2.64l0.59-2.86h9.11l-0.61 2.86h-2.64l2.73 10.2 7.01-10.2h-2.54l0.59-2.86h9.1l-0.61 2.86h-2.73l-9.4 12.96 4.05 13.18zM73-5.96l2 1.61c-1.3 1.5-2.88 2.693-4.74 3.58-1.853 0.887-3.927 1.33-6.22 1.33v0c-1.76 0-3.313-0.293-4.66-0.88-1.353-0.587-2.45-1.403-3.29-2.45-0.84-1.053-1.4-2.303-1.68-3.75-0.287-1.447-0.227-3.057 0.18-4.83v0c0.373-1.727 0.983-3.327 1.83-4.8 0.847-1.473 1.877-2.733 3.09-3.78 1.213-1.053 2.603-1.877 4.17-2.47 1.573-0.593 3.247-0.89 5.02-0.89v0c0.7 0 1.393 0.08 2.08 0.24 0.68 0.167 1.31 0.417 1.89 0.75 0.58 0.333 1.077 0.73 1.49 1.19 0.413 0.467 0.693 1.017 0.84 1.65v0l0.68-3.29h3.01l-1.91 9.1h-3c0.213-1.007 0.227-1.927 0.04-2.76-0.187-0.827-0.537-1.54-1.05-2.14-0.513-0.607-1.183-1.077-2.01-1.41-0.82-0.333-1.727-0.5-2.72-0.5v0c-1.367 0-2.607 0.237-3.72 0.71-1.113 0.473-2.1 1.117-2.96 1.93-0.853 0.813-1.567 1.77-2.14 2.87-0.58 1.093-1.01 2.293-1.29 3.6v0c-0.287 1.3-0.35 2.5-0.19 3.6 0.16 1.1 0.533 2.047 1.12 2.84 0.587 0.8 1.363 1.437 2.33 1.91 0.973 0.473 2.127 0.71 3.46 0.71v0c1.693 0 3.27-0.337 4.73-1.01 1.467-0.667 2.673-1.553 3.62-2.66zM103.98-14.04l-2.95 14.04h-3.35l2.95-14.04c0.44-2.033 0.337-3.61-0.31-4.73-0.653-1.127-1.963-1.69-3.93-1.69v0c-1.24 0-2.417 0.287-3.53 0.86-1.113 0.567-2.123 1.327-3.03 2.28-0.9 0.953-1.663 2.043-2.29 3.27-0.627 1.227-1.08 2.507-1.36 3.84v0l-2.15 10.21h-3.34l6.74-31.86h3.37l-3.15 14.82c2.487-4.167 5.797-6.25 9.93-6.25v0c5.6 0 7.733 3.083 6.4 9.25zM108.03-6.15v0c0.293-1.433 0.9-2.633 1.82-3.6 0.92-0.973 2.023-1.74 3.31-2.3 1.287-0.56 2.71-0.967 4.27-1.22 1.567-0.253 3.13-0.38 4.69-0.38v0c0.6 0 1.137 0.01 1.61 0.03 0.473 0.013 0.927 0.037 1.36 0.07 0.427 0.033 0.847 0.073 1.26 0.12 0.42 0.053 0.897 0.11 1.43 0.17v0l0.35-1.63c0.24-1.107 0.193-2.02-0.14-2.74-0.333-0.713-0.81-1.277-1.43-1.69-0.62-0.42-1.293-0.713-2.02-0.88-0.733-0.173-1.37-0.26-1.91-0.26v0c-1.707 0-3.317 0.227-4.83 0.68-1.513 0.46-2.97 1.073-4.37 1.84v0l-1-2.52c1.56-0.827 3.25-1.507 5.07-2.04 1.827-0.527 3.757-0.79 5.79-0.79v0c1.22 0 2.4 0.16 3.54 0.48 1.14 0.313 2.11 0.8 2.91 1.46 0.793 0.66 1.357 1.527 1.69 2.6 0.333 1.073 0.347 2.36 0.04 3.86v0l-3.15 14.89h-3.34l0.8-3.81c-0.767 0.733-1.577 1.377-2.43 1.93-0.853 0.553-1.72 1.007-2.6 1.36-0.88 0.347-1.753 0.613-2.62 0.8-0.873 0.187-1.677 0.28-2.41 0.28v0c-2.993 0-5.14-0.577-6.44-1.73-1.307-1.16-1.723-2.82-1.25-4.98zM116.33-2.29v0c1.4 0 2.707-0.21 3.92-0.63 1.213-0.413 2.273-0.93 3.18-1.55 0.9-0.62 1.643-1.28 2.23-1.98 0.587-0.7 0.943-1.333 1.07-1.9v0l0.44-2.15c-1.053-0.16-2.083-0.25-3.09-0.27-1-0.013-1.867-0.02-2.6-0.02v0c-1.2 0-2.373 0.08-3.52 0.24-1.147 0.167-2.173 0.433-3.08 0.8-0.9 0.367-1.67 0.84-2.31 1.42-0.633 0.587-1.03 1.313-1.19 2.18v0c-0.227 0.96 0.04 1.843 0.8 2.65 0.767 0.807 2.15 1.21 4.15 1.21zM158.57-14.04l-2.95 14.04h-3.35l2.95-14.04c0.44-2.033 0.337-3.61-0.31-4.73-0.653-1.127-1.963-1.69-3.93-1.69v0c-1.24 0-2.417 0.287-3.53 0.86-1.113 0.567-2.123 1.327-3.03 2.28-0.9 0.953-1.663 2.043-2.29 3.27-0.627 1.227-1.08 2.507-1.36 3.84v0l-2.15 10.21h-3.34l4.78-22.75h3.37l-1.19 5.71c2.487-4.167 5.797-6.25 9.93-6.25v0c5.6 0 7.733 3.083 6.4 9.25zM187.72-22.75l-4.76 22.51c-0.327 1.56-0.89 2.95-1.69 4.17-0.793 1.22-1.77 2.253-2.93 3.1-1.153 0.847-2.437 1.493-3.85 1.94-1.42 0.447-2.927 0.67-4.52 0.67v0c-2.26 0-4.09-0.423-5.49-1.27-1.4-0.847-2.483-2.067-3.25-3.66v0l2.64-1.8c0.473 1.053 1.29 1.94 2.45 2.66 1.167 0.713 2.603 1.07 4.31 1.07v0c2.293 0 4.237-0.58 5.83-1.74 1.6-1.167 2.637-2.85 3.11-5.05v0l0.56-2.44c-2.413 1.76-4.88 2.64-7.4 2.64v0c-3.58 0-6.167-1.017-7.76-3.05-1.6-2.033-2.017-4.817-1.25-8.35v0c0.36-1.727 0.96-3.32 1.8-4.78 0.833-1.453 1.857-2.713 3.07-3.78 1.213-1.067 2.597-1.897 4.15-2.49 1.553-0.593 3.21-0.89 4.97-0.89v0c1.24 0 2.39 0.217 3.45 0.65 1.067 0.427 1.983 1.073 2.75 1.94v0l0.47-2.05zM180.76-5.86l2.52-11.6c-0.767-1.053-1.677-1.817-2.73-2.29-1.047-0.473-2.203-0.71-3.47-0.71v0c-1.34 0-2.567 0.237-3.68 0.71-1.113 0.473-2.09 1.117-2.93 1.93-0.84 0.813-1.547 1.777-2.12 2.89-0.58 1.113-1.007 2.307-1.28 3.58v0c-0.573 2.6-0.35 4.673 0.67 6.22 1.013 1.547 2.873 2.32 5.58 2.32v0c1.267 0 2.533-0.24 3.8-0.72 1.273-0.48 2.487-1.257 3.64-2.33zM189.92-6.15v0c0.293-1.433 0.9-2.633 1.82-3.6 0.92-0.973 2.02-1.74 3.3-2.3 1.287-0.56 2.713-0.967 4.28-1.22 1.56-0.253 3.12-0.38 4.68-0.38v0c0.607 0 1.147 0.01 1.62 0.03 0.467 0.013 0.917 0.037 1.35 0.07 0.433 0.033 0.857 0.073 1.27 0.12 0.413 0.053 0.89 0.11 1.43 0.17v0l0.34-1.63c0.247-1.107 0.203-2.02-0.13-2.74-0.333-0.713-0.81-1.277-1.43-1.69-0.62-0.42-1.297-0.713-2.03-0.88-0.733-0.173-1.367-0.26-1.9-0.26v0c-1.713 0-3.327 0.227-4.84 0.68-1.513 0.46-2.97 1.073-4.37 1.84v0l-1-2.52c1.567-0.827 3.26-1.507 5.08-2.04 1.82-0.527 3.75-0.79 5.79-0.79v0c1.22 0 2.4 0.16 3.54 0.48 1.133 0.313 2.1 0.8 2.9 1.46 0.8 0.66 1.367 1.527 1.7 2.6 0.333 1.073 0.343 2.36 0.03 3.86v0l-3.14 14.89h-3.35l0.81-3.81c-0.767 0.733-1.577 1.377-2.43 1.93-0.853 0.553-1.72 1.007-2.6 1.36-0.88 0.347-1.757 0.613-2.63 0.8-0.867 0.187-1.667 0.28-2.4 0.28v0c-2.993 0-5.143-0.577-6.45-1.73-1.3-1.16-1.713-2.82-1.24-4.98zM198.22-2.29v0c1.4 0 2.707-0.21 3.92-0.63 1.213-0.413 2.27-0.93 3.17-1.55 0.907-0.62 1.65-1.28 2.23-1.98 0.587-0.7 0.947-1.333 1.08-1.9v0l0.44-2.15c-1.06-0.16-2.09-0.25-3.09-0.27-1-0.013-1.867-0.02-2.6-0.02v0c-1.207 0-2.383 0.08-3.53 0.24-1.147 0.167-2.17 0.433-3.07 0.8-0.907 0.367-1.677 0.84-2.31 1.42-0.633 0.587-1.033 1.313-1.2 2.18v0c-0.227 0.96 0.043 1.843 0.81 2.65 0.76 0.807 2.143 1.21 4.15 1.21zM241.11-11.35v0c-0.373 1.74-0.983 3.343-1.83 4.81-0.847 1.46-1.88 2.717-3.1 3.77-1.22 1.047-2.603 1.863-4.15 2.45-1.547 0.587-3.207 0.88-4.98 0.88v0c-1.22 0-2.347-0.22-3.38-0.66-1.033-0.44-1.957-1.09-2.77-1.95v0l-0.39 2.05h-3.35l6.74-31.86h3.37l-2.42 11.21c1.173-0.833 2.373-1.483 3.6-1.95 1.233-0.46 2.467-0.69 3.7-0.69v0c1.773 0 3.3 0.297 4.58 0.89 1.28 0.593 2.313 1.417 3.1 2.47 0.793 1.047 1.293 2.307 1.5 3.78 0.213 1.473 0.14 3.073-0.22 4.8zM237.72-11.35v0c0.26-1.307 0.34-2.507 0.24-3.6-0.093-1.1-0.4-2.057-0.92-2.87-0.527-0.813-1.243-1.457-2.15-1.93-0.913-0.473-2.037-0.71-3.37-0.71v0c-2.573 0-5.023 1.017-7.35 3.05v0l-2.56 12.16c0.733 1.06 1.607 1.817 2.62 2.27 1.02 0.46 2.163 0.69 3.43 0.69v0c1.333 0 2.55-0.237 3.65-0.71 1.1-0.473 2.087-1.117 2.96-1.93 0.867-0.813 1.59-1.77 2.17-2.87 0.573-1.1 1-2.283 1.28-3.55zM262.06-2.86l-0.61 2.86h-13.65l0.61-2.86h5.15l5.55-26.14h-5.15l0.61-2.86h8.49l-6.15 29zM295.7-10.21h-19.65c-0.26 2.413 0.207 4.337 1.4 5.77 1.2 1.433 3.02 2.15 5.46 2.15v0c1.693 0 3.28-0.35 4.76-1.05 1.48-0.7 2.677-1.573 3.59-2.62v0l1.98 1.61c-1.467 1.6-3.083 2.817-4.85 3.65-1.767 0.84-3.797 1.26-6.09 1.26v0c-1.773 0-3.323-0.293-4.65-0.88-1.327-0.587-2.417-1.403-3.27-2.45-0.853-1.053-1.423-2.303-1.71-3.75-0.287-1.447-0.227-3.057 0.18-4.83v0c0.36-1.727 0.96-3.32 1.8-4.78 0.833-1.453 1.867-2.713 3.1-3.78 1.227-1.067 2.627-1.897 4.2-2.49 1.567-0.593 3.23-0.89 4.99-0.89v0c1.933 0 3.553 0.327 4.86 0.98 1.3 0.647 2.317 1.543 3.05 2.69 0.733 1.147 1.157 2.52 1.27 4.12 0.113 1.593-0.027 3.357-0.42 5.29zM276.71-13.06h16.04c0.16-2.493-0.35-4.35-1.53-5.57-1.18-1.22-2.82-1.83-4.92-1.83v0c-1.073 0-2.1 0.177-3.08 0.53-0.987 0.347-1.897 0.847-2.73 1.5-0.827 0.647-1.573 1.43-2.24 2.35-0.667 0.92-1.18 1.927-1.54 3.02zM353.44-31.86l-6.76 31.86h-3.35l5.62-26.54-9.16 16.43h-2.41l-2.1-16.43-5.59 26.54h-3.35l6.74-31.86h4.37l2.25 16.65 9.4-16.65zM378.17-11.3v0c-0.387 1.773-1.017 3.383-1.89 4.83-0.867 1.447-1.933 2.687-3.2 3.72-1.26 1.033-2.69 1.843-4.29 2.43-1.607 0.587-3.313 0.88-5.12 0.88v0c-1.753 0-3.3-0.293-4.64-0.88-1.333-0.587-2.413-1.397-3.24-2.43-0.833-1.033-1.383-2.273-1.65-3.72-0.267-1.447-0.197-3.057 0.21-4.83v0c0.353-1.727 0.973-3.337 1.86-4.83 0.887-1.487 1.963-2.753 3.23-3.8 1.26-1.053 2.69-1.877 4.29-2.47 1.607-0.593 3.287-0.89 5.04-0.89v0c1.807 0 3.38 0.297 4.72 0.89 1.333 0.593 2.413 1.417 3.24 2.47 0.833 1.047 1.377 2.313 1.63 3.8 0.253 1.493 0.19 3.103-0.19 4.83zM374.83-11.3v0c0.273-1.307 0.333-2.507 0.18-3.6-0.153-1.1-0.523-2.067-1.11-2.9-0.587-0.827-1.36-1.477-2.32-1.95-0.96-0.473-2.107-0.71-3.44-0.71v0c-1.333 0-2.587 0.237-3.76 0.71-1.173 0.473-2.207 1.123-3.1 1.95-0.893 0.833-1.65 1.8-2.27 2.9-0.62 1.093-1.06 2.293-1.32 3.6v0c-0.307 1.3-0.383 2.5-0.23 3.6 0.153 1.1 0.51 2.047 1.07 2.84 0.567 0.8 1.333 1.427 2.3 1.88 0.967 0.46 2.117 0.69 3.45 0.69v0c1.333 0 2.583-0.23 3.75-0.69 1.167-0.453 2.207-1.08 3.12-1.88 0.92-0.793 1.69-1.74 2.31-2.84 0.62-1.1 1.077-2.3 1.37-3.6zM404.22-14.04l-2.95 14.04h-3.35l2.96-14.04c0.44-2.033 0.333-3.61-0.32-4.73-0.653-1.127-1.963-1.69-3.93-1.69v0c-1.233 0-2.41 0.287-3.53 0.86-1.113 0.567-2.12 1.327-3.02 2.28-0.907 0.953-1.673 2.043-2.3 3.27-0.627 1.227-1.077 2.507-1.35 3.84v0l-2.15 10.21h-3.35l4.79-22.75h3.37l-1.2 5.71c2.493-4.167 5.807-6.25 9.94-6.25v0c5.6 0 7.73 3.083 6.39 9.25zM430.47-6.3v0c-0.26 1.333-0.817 2.44-1.67 3.32-0.86 0.88-1.87 1.58-3.03 2.1-1.167 0.52-2.423 0.89-3.77 1.11-1.353 0.22-2.647 0.33-3.88 0.33v0c-2.073 0-4.063-0.3-5.97-0.9-1.913-0.607-3.523-1.397-4.83-2.37v0l2.1-2.88c1.467 1.06 2.95 1.873 4.45 2.44 1.493 0.573 3.113 0.86 4.86 0.86v0c5.027 0 7.823-1.303 8.39-3.91v0c0.133-0.633 0.033-1.15-0.3-1.55-0.333-0.4-0.827-0.727-1.48-0.98-0.647-0.253-1.403-0.453-2.27-0.6-0.86-0.147-1.78-0.283-2.76-0.41v0c-1.22-0.18-2.433-0.393-3.64-0.64-1.2-0.24-2.263-0.603-3.19-1.09-0.933-0.493-1.627-1.147-2.08-1.96-0.453-0.813-0.543-1.887-0.27-3.22v0c0.26-1.14 0.767-2.123 1.52-2.95 0.747-0.833 1.66-1.527 2.74-2.08 1.087-0.553 2.313-0.96 3.68-1.22 1.367-0.26 2.75-0.39 4.15-0.39v0c2 0 3.74 0.23 5.22 0.69 1.48 0.467 2.76 1.13 3.84 1.99v0l-1.91 2.62c-1.087-0.913-2.267-1.553-3.54-1.92-1.267-0.367-2.683-0.55-4.25-0.55v0c-0.7 0-1.483 0.06-2.35 0.18-0.873 0.127-1.71 0.34-2.51 0.64-0.793 0.3-1.49 0.69-2.09 1.17-0.607 0.48-0.99 1.087-1.15 1.82v0c-0.133 0.633-0.033 1.143 0.3 1.53 0.333 0.38 0.823 0.697 1.47 0.95 0.64 0.253 1.397 0.453 2.27 0.6 0.867 0.147 1.78 0.283 2.74 0.41v0c1.207 0.18 2.42 0.393 3.64 0.64 1.22 0.24 2.297 0.597 3.23 1.07 0.927 0.473 1.623 1.117 2.09 1.93 0.473 0.813 0.557 1.887 0.25 3.22zM456.18-7.86l2.63 0.61c-0.76 2.393-2.097 4.293-4.01 5.7-1.913 1.407-4.09 2.11-6.53 2.11v0c-1.34 0-2.51-0.22-3.51-0.66-1-0.44-1.803-1.05-2.41-1.83-0.613-0.78-1.02-1.72-1.22-2.82-0.207-1.1-0.18-2.3 0.08-3.6v0l2.47-11.55h-5.15l0.58-2.85h5.15l1.96-9.11h3.34l-1.95 9.11h9.71l-0.61 2.85h-9.69l-2.44 11.55c-0.18 0.833-0.217 1.613-0.11 2.34 0.107 0.733 0.343 1.377 0.71 1.93 0.367 0.553 0.853 0.99 1.46 1.31 0.613 0.32 1.36 0.48 2.24 0.48v0c1.66 0 3.157-0.52 4.49-1.56 1.333-1.033 2.27-2.37 2.81-4.01zM486.77-10.21h-19.66c-0.26 2.413 0.21 4.337 1.41 5.77 1.193 1.433 3.01 2.15 5.45 2.15v0c1.693 0 3.283-0.35 4.77-1.05 1.48-0.7 2.673-1.573 3.58-2.62v0l1.98 1.61c-1.467 1.6-3.08 2.817-4.84 3.65-1.767 0.84-3.8 1.26-6.1 1.26v0c-1.773 0-3.323-0.293-4.65-0.88-1.327-0.587-2.417-1.403-3.27-2.45-0.853-1.053-1.423-2.303-1.71-3.75-0.28-1.447-0.217-3.057 0.19-4.83v0c0.353-1.727 0.95-3.32 1.79-4.78 0.84-1.453 1.873-2.713 3.1-3.78 1.227-1.067 2.627-1.897 4.2-2.49 1.573-0.593 3.237-0.89 4.99-0.89v0c1.94 0 3.56 0.327 4.86 0.98 1.3 0.647 2.317 1.543 3.05 2.69 0.733 1.147 1.157 2.52 1.27 4.12 0.113 1.593-0.023 3.357-0.41 5.29zM467.77-13.06h16.04c0.167-2.493-0.34-4.35-1.52-5.57-1.18-1.22-2.82-1.83-4.92-1.83v0c-1.073 0-2.103 0.177-3.09 0.53-0.987 0.347-1.893 0.847-2.72 1.5-0.833 0.647-1.583 1.43-2.25 2.35-0.667 0.92-1.18 1.927-1.54 3.02zM516.21-22.29l-1.66 2.73c-1.087-0.6-2.47-0.9-4.15-0.9v0c-1.367 0-2.64 0.293-3.82 0.88-1.18 0.587-2.247 1.357-3.2 2.31-0.953 0.953-1.763 2.043-2.43 3.27-0.667 1.227-1.13 2.49-1.39 3.79v0l-1.56 7.35h5.15l-0.59 2.86h-13.64l0.58-2.86h5.15l3.62-17.04h-5.15l0.58-2.85h8.5l-1.2 5.71c2.44-4.167 5.793-6.25 10.06-6.25v0c1.173 0 2.167 0.073 2.98 0.22 0.813 0.147 1.537 0.407 2.17 0.78zM557.4-17.94l8.69 17.94h-4.1l-7.3-15.6-4.15 3.76-2.49 11.84h-3.35l6.74-31.86h3.37l-3.32 15.5 16.97-15.5h4.39zM572.05-6.15v0c0.293-1.433 0.897-2.633 1.81-3.6 0.92-0.973 2.023-1.74 3.31-2.3 1.287-0.56 2.713-0.967 4.28-1.22 1.56-0.253 3.12-0.38 4.68-0.38v0c0.607 0 1.143 0.01 1.61 0.03 0.473 0.013 0.927 0.037 1.36 0.07 0.433 0.033 0.857 0.073 1.27 0.12 0.413 0.053 0.89 0.11 1.43 0.17v0l0.34-1.63c0.24-1.107 0.193-2.02-0.14-2.74-0.333-0.713-0.807-1.277-1.42-1.69-0.62-0.42-1.297-0.713-2.03-0.88-0.733-0.173-1.367-0.26-1.9-0.26v0c-1.713 0-3.327 0.227-4.84 0.68-1.513 0.46-2.97 1.073-4.37 1.84v0l-1-2.52c1.56-0.827 3.253-1.507 5.08-2.04 1.82-0.527 3.747-0.79 5.78-0.79v0c1.227 0 2.407 0.16 3.54 0.48 1.14 0.313 2.11 0.8 2.91 1.46 0.8 0.66 1.367 1.527 1.7 2.6 0.333 1.073 0.343 2.36 0.03 3.86v0l-3.15 14.89h-3.34l0.8-3.81c-0.76 0.733-1.567 1.377-2.42 1.93-0.86 0.553-1.727 1.007-2.6 1.36-0.88 0.347-1.757 0.613-2.63 0.8-0.873 0.187-1.673 0.28-2.4 0.28v0c-3 0-5.15-0.577-6.45-1.73-1.3-1.16-1.713-2.82-1.24-4.98zM580.35-2.29v0c1.4 0 2.707-0.21 3.92-0.63 1.207-0.413 2.263-0.93 3.17-1.55 0.9-0.62 1.643-1.28 2.23-1.98 0.587-0.7 0.947-1.333 1.08-1.9v0l0.44-2.15c-1.06-0.16-2.09-0.25-3.09-0.27-1-0.013-1.867-0.02-2.6-0.02v0c-1.207 0-2.383 0.08-3.53 0.24-1.147 0.167-2.173 0.433-3.08 0.8-0.9 0.367-1.667 0.84-2.3 1.42-0.64 0.587-1.04 1.313-1.2 2.18v0c-0.227 0.96 0.043 1.843 0.81 2.65 0.76 0.807 2.143 1.21 4.15 1.21zM625.39-22.29l-1.66 2.73c-1.093-0.6-2.477-0.9-4.15-0.9v0c-1.367 0-2.64 0.293-3.82 0.88-1.18 0.587-2.247 1.357-3.2 2.31-0.953 0.953-1.763 2.043-2.43 3.27-0.667 1.227-1.13 2.49-1.39 3.79v0l-1.56 7.35h5.15l-0.59 2.86h-13.64l0.58-2.86h5.15l3.62-17.04h-5.16l0.59-2.85h8.5l-1.2 5.71c2.44-4.167 5.793-6.25 10.06-6.25v0c1.173 0 2.167 0.073 2.98 0.22 0.813 0.147 1.537 0.407 2.17 0.78zM653.69-31.86l-6.77 31.86h-3.34l0.41-2.1c-1.133 0.86-2.327 1.52-3.58 1.98-1.253 0.453-2.477 0.68-3.67 0.68v0c-1.807 0-3.36-0.293-4.66-0.88-1.3-0.587-2.333-1.403-3.1-2.45-0.767-1.053-1.26-2.31-1.48-3.77-0.22-1.467-0.143-3.07 0.23-4.81v0c0.36-1.727 0.967-3.327 1.82-4.8 0.853-1.473 1.88-2.733 3.08-3.78 1.193-1.053 2.577-1.877 4.15-2.47 1.573-0.593 3.253-0.89 5.04-0.89v0c1.207 0 2.333 0.217 3.38 0.65 1.053 0.427 1.96 1.073 2.72 1.94v0l1.81-8.3h-4.54l0.59-2.86zM644.68-5.3l2.61-12.16c-0.767-1.053-1.667-1.817-2.7-2.29-1.033-0.473-2.183-0.71-3.45-0.71v0c-1.333 0-2.56 0.237-3.68 0.71-1.113 0.473-2.097 1.117-2.95 1.93-0.853 0.813-1.57 1.77-2.15 2.87-0.58 1.093-1.007 2.293-1.28 3.6v0c-0.293 1.3-0.383 2.5-0.27 3.6 0.113 1.1 0.43 2.057 0.95 2.87 0.52 0.813 1.237 1.457 2.15 1.93 0.913 0.467 2.037 0.7 3.37 0.7v0c2.573 0 5.04-1.017 7.4-3.05zM676.12-6.3v0c-0.26 1.333-0.817 2.44-1.67 3.32-0.853 0.88-1.863 1.58-3.03 2.1-1.16 0.52-2.417 0.89-3.77 1.11-1.347 0.22-2.64 0.33-3.88 0.33v0c-2.067 0-4.057-0.3-5.97-0.9-1.913-0.607-3.52-1.397-4.82-2.37v0l2.1-2.88c1.467 1.06 2.947 1.873 4.44 2.44 1.5 0.573 3.12 0.86 4.86 0.86v0c5.027 0 7.827-1.303 8.4-3.91v0c0.127-0.633 0.023-1.15-0.31-1.55-0.333-0.4-0.823-0.727-1.47-0.98-0.653-0.253-1.41-0.453-2.27-0.6-0.867-0.147-1.787-0.283-2.76-0.41v0c-1.22-0.18-2.433-0.393-3.64-0.64-1.207-0.24-2.273-0.603-3.2-1.09-0.927-0.493-1.617-1.147-2.07-1.96-0.46-0.813-0.55-1.887-0.27-3.22v0c0.26-1.14 0.763-2.123 1.51-2.95 0.747-0.833 1.663-1.527 2.75-2.08 1.08-0.553 2.303-0.96 3.67-1.22 1.367-0.26 2.75-0.39 4.15-0.39v0c2.007 0 3.75 0.23 5.23 0.69 1.48 0.467 2.757 1.13 3.83 1.99v0l-1.9 2.62c-1.093-0.913-2.273-1.553-3.54-1.92-1.273-0.367-2.69-0.55-4.25-0.55v0c-0.7 0-1.487 0.06-2.36 0.18-0.867 0.127-1.7 0.34-2.5 0.64-0.8 0.3-1.5 0.69-2.1 1.17-0.6 0.48-0.983 1.087-1.15 1.82v0c-0.127 0.633-0.023 1.143 0.31 1.53 0.333 0.38 0.82 0.697 1.46 0.95 0.647 0.253 1.403 0.453 2.27 0.6 0.873 0.147 1.79 0.283 2.75 0.41v0c1.207 0.18 2.42 0.393 3.64 0.64 1.22 0.24 2.293 0.597 3.22 1.07 0.927 0.473 1.627 1.117 2.1 1.93 0.473 0.813 0.553 1.887 0.24 3.22z" fill="#8ac4a4" fill-rule="nonzero" stroke="none" stroke-width="1" stroke-linecap="butt" stroke-linejoin="miter" stroke-miterlimit="10" stroke-dasharray="" stroke-dashoffset="0" font-family="none" font-weight="none" font-size="none" text-anchor="none" style="mix-blend-mode: normal" data-fill-palette-color="secondary" id="text-1"></path></g></g><g transform="matrix(1,0,0,1,29.33176499999999,59.40406505891815)"><svg viewBox="0 0 316.416 121.0933286821637" height="121.0933286821637" width="316.416"><g><svg viewBox="0 0 316.416 121.0933286821637" height="121.0933286821637" width="316.416"><g><svg viewBox="0 0 316.416 121.0933286821637" height="121.0933286821637" width="316.416"><g transform="matrix(1,0,0,1,0,74.84053514898754)"><svg viewBox="0 0 316.416 46.25279353317615" height="46.25279353317615" width="316.416"><g id="textblocktransform"><svg viewBox="0 0 316.416 46.25279353317615" height="46.25279353317615" width="316.416" id="textblock"><g><svg viewBox="0 0 316.416 46.25279353317615" height="46.25279353317615" width="316.416"><g transform="matrix(1,0,0,1,0,0)"><svg width="316.416" viewBox="5.03 -43.07 289.93 42.39" height="46.25279353317615" data-palette-color="#3cb371"><path d="M7.96-0.68L7.96-0.68 17.04-0.68Q18.41-0.68 19.19-1.42 19.97-2.15 19.97-3.13 19.97-4.1 19.19-4.83 18.41-5.57 17.04-5.57L17.04-5.57 7.96-5.57Q6.59-5.57 5.81-4.83 5.03-4.1 5.03-3.13 5.03-2.15 5.81-1.42 6.59-0.68 7.96-0.68ZM32.96-0.68L32.96-0.68 42.04-0.68Q43.41-0.68 44.19-1.42 44.97-2.15 44.97-3.13 44.97-4.1 44.19-4.83 43.41-5.57 42.04-5.57L42.04-5.57 32.96-5.57Q31.59-5.57 30.81-4.83 30.03-4.1 30.03-3.13 30.03-2.15 30.81-1.42 31.59-0.68 32.96-0.68ZM7.96-6.93L7.96-6.93 17.04-6.93Q18.41-6.93 19.19-7.67 19.97-8.4 19.97-9.38 19.97-10.35 19.19-11.08 18.41-11.82 17.04-11.82L17.04-11.82 7.96-11.82Q6.59-11.82 5.81-11.08 5.03-10.35 5.03-9.38 5.03-8.4 5.81-7.67 6.59-6.93 7.96-6.93ZM32.96-6.93L32.96-6.93 42.04-6.93Q43.41-6.93 44.19-7.67 44.97-8.4 44.97-9.38 44.97-10.35 44.19-11.08 43.41-11.82 42.04-11.82L42.04-11.82 32.96-11.82Q31.59-11.82 30.81-11.08 30.03-10.35 30.03-9.38 30.03-8.4 30.81-7.67 31.59-6.93 32.96-6.93ZM14.21-13.18L14.21-13.18 35.79-13.18Q37.16-13.18 37.94-13.92 38.72-14.65 38.72-15.63 38.72-16.6 37.94-17.33 37.16-18.07 35.79-18.07L35.79-18.07 14.21-18.07Q12.84-18.07 12.06-17.33 11.28-16.6 11.28-15.63 11.28-14.65 12.06-13.92 12.84-13.18 14.21-13.18ZM20.46-19.43L20.46-19.43 29.54-19.43Q30.91-19.43 31.69-20.17 32.47-20.9 32.47-21.88 32.47-22.85 31.69-23.58 30.91-24.32 29.54-24.32L29.54-24.32 20.46-24.32Q19.09-24.32 18.31-23.58 17.53-22.85 17.53-21.88 17.53-20.9 18.31-20.17 19.09-19.43 20.46-19.43ZM14.21-25.68L14.21-25.68 35.79-25.68Q37.16-25.68 37.94-26.42 38.72-27.15 38.72-28.13 38.72-29.1 37.94-29.83 37.16-30.57 35.79-30.57L35.79-30.57 14.21-30.57Q12.84-30.57 12.06-29.83 11.28-29.1 11.28-28.13 11.28-27.15 12.06-26.42 12.84-25.68 14.21-25.68ZM7.96-31.93L7.96-31.93 17.04-31.93Q18.41-31.93 19.19-32.67 19.97-33.4 19.97-34.38 19.97-35.35 19.19-36.08 18.41-36.82 17.04-36.82L17.04-36.82 7.96-36.82Q6.59-36.82 5.81-36.08 5.03-35.35 5.03-34.38 5.03-33.4 5.81-32.67 6.59-31.93 7.96-31.93ZM32.96-31.93L32.96-31.93 42.04-31.93Q43.41-31.93 44.19-32.67 44.97-33.4 44.97-34.38 44.97-35.35 44.19-36.08 43.41-36.82 42.04-36.82L42.04-36.82 32.96-36.82Q31.59-36.82 30.81-36.08 30.03-35.35 30.03-34.38 30.03-33.4 30.81-32.67 31.59-31.93 32.96-31.93ZM7.96-38.18L7.96-38.18 17.04-38.18Q18.41-38.18 19.19-38.92 19.97-39.65 19.97-40.63 19.97-41.6 19.19-42.33 18.41-43.07 17.04-43.07L17.04-43.07 7.96-43.07Q6.59-43.07 5.81-42.33 5.03-41.6 5.03-40.63 5.03-39.65 5.81-38.92 6.59-38.18 7.96-38.18ZM32.96-38.18L32.96-38.18 42.04-38.18Q43.41-38.18 44.19-38.92 44.97-39.65 44.97-40.63 44.97-41.6 44.19-42.33 43.41-43.07 42.04-43.07L42.04-43.07 32.96-43.07Q31.59-43.07 30.81-42.33 30.03-41.6 30.03-40.63 30.03-39.65 30.81-38.92 31.59-38.18 32.96-38.18ZM57.96-0.68L57.96-0.68 67.04-0.68Q68.41-0.68 69.19-1.42 69.97-2.15 69.97-3.13 69.97-4.1 69.19-4.83 68.41-5.57 67.04-5.57L67.04-5.57 57.96-5.57Q56.59-5.57 55.81-4.83 55.03-4.1 55.03-3.13 55.03-2.15 55.81-1.42 56.59-0.68 57.96-0.68ZM89.21-0.68L89.21-0.68 98.29-0.68Q99.66-0.68 100.44-1.42 101.22-2.15 101.22-3.13 101.22-4.1 100.44-4.83 99.66-5.57 98.29-5.57L98.29-5.57 89.21-5.57Q87.84-5.57 87.06-4.83 86.28-4.1 86.28-3.13 86.28-2.15 87.06-1.42 87.84-0.68 89.21-0.68ZM57.96-6.93L57.96-6.93 67.04-6.93Q68.41-6.93 69.19-7.67 69.97-8.4 69.97-9.38 69.97-10.35 69.19-11.08 68.41-11.82 67.04-11.82L67.04-11.82 57.96-11.82Q56.59-11.82 55.81-11.08 55.03-10.35 55.03-9.38 55.03-8.4 55.81-7.67 56.59-6.93 57.96-6.93ZM76.27-6.93L76.27-6.93 79.98-6.93Q81.05-6.93 81.76-7.67 82.47-8.4 82.47-9.38 82.47-10.35 81.76-11.08 81.05-11.82 79.98-11.82L79.98-11.82 76.27-11.82Q75.19-11.82 74.48-11.08 73.78-10.35 73.78-9.38 73.78-8.4 74.48-7.67 75.19-6.93 76.27-6.93ZM89.21-6.93L89.21-6.93 98.29-6.93Q99.66-6.93 100.44-7.67 101.22-8.4 101.22-9.38 101.22-10.35 100.44-11.08 99.66-11.82 98.29-11.82L98.29-11.82 89.21-11.82Q87.84-11.82 87.06-11.08 86.28-10.35 86.28-9.38 86.28-8.4 87.06-7.67 87.84-6.93 89.21-6.93ZM57.96-13.18L57.96-13.18 98.29-13.18Q99.66-13.18 100.44-13.92 101.22-14.65 101.22-15.63 101.22-16.6 100.44-17.33 99.66-18.07 98.29-18.07L98.29-18.07 57.96-18.07Q56.59-18.07 55.81-17.33 55.03-16.6 55.03-15.63 55.03-14.65 55.81-13.92 56.59-13.18 57.96-13.18ZM57.96-19.43L57.96-19.43 98.29-19.43Q99.66-19.43 100.44-20.17 101.22-20.9 101.22-21.88 101.22-22.85 100.44-23.58 99.66-24.32 98.29-24.32L98.29-24.32 57.96-24.32Q56.59-24.32 55.81-23.58 55.03-22.85 55.03-21.88 55.03-20.9 55.81-20.17 56.59-19.43 57.96-19.43ZM57.96-25.68L57.96-25.68 67.04-25.68Q68.41-25.68 69.19-26.42 69.97-27.15 69.97-28.13 69.97-29.1 69.19-29.83 68.41-30.57 67.04-30.57L67.04-30.57 57.96-30.57Q56.59-30.57 55.81-29.83 55.03-29.1 55.03-28.13 55.03-27.15 55.81-26.42 56.59-25.68 57.96-25.68ZM82.96-25.68L82.96-25.68 92.04-25.68Q93.41-25.68 94.19-26.42 94.97-27.15 94.97-28.13 94.97-29.1 94.19-29.83 93.41-30.57 92.04-30.57L92.04-30.57 82.96-30.57Q81.59-30.57 80.81-29.83 80.03-29.1 80.03-28.13 80.03-27.15 80.81-26.42 81.59-25.68 82.96-25.68ZM114.2-0.68L114.2-0.68 135.79-0.68Q137.15-0.68 137.93-1.42 138.72-2.15 138.72-3.13 138.72-4.1 137.93-4.83 137.15-5.57 135.79-5.57L135.79-5.57 114.2-5.57Q112.84-5.57 112.06-4.83 111.27-4.1 111.27-3.13 111.27-2.15 112.06-1.42 112.84-0.68 114.2-0.68ZM107.95-6.93L107.95-6.93 117.04-6.93Q118.4-6.93 119.18-7.67 119.97-8.4 119.97-9.38 119.97-10.35 119.18-11.08 118.4-11.82 117.04-11.82L117.04-11.82 107.95-11.82Q106.59-11.82 105.81-11.08 105.02-10.35 105.02-9.38 105.02-8.4 105.81-7.67 106.59-6.93 107.95-6.93ZM132.95-6.93L132.95-6.93 142.04-6.93Q143.4-6.93 144.18-7.67 144.97-8.4 144.97-9.38 144.97-10.35 144.18-11.08 143.4-11.82 142.04-11.82L142.04-11.82 132.95-11.82Q131.59-11.82 130.81-11.08 130.02-10.35 130.02-9.38 130.02-8.4 130.81-7.67 131.59-6.93 132.95-6.93ZM107.95-13.18L107.95-13.18 117.04-13.18Q118.4-13.18 119.18-13.92 119.97-14.65 119.97-15.63 119.97-16.6 119.18-17.33 118.4-18.07 117.04-18.07L117.04-18.07 107.95-18.07Q106.59-18.07 105.81-17.33 105.02-16.6 105.02-15.63 105.02-14.65 105.81-13.92 106.59-13.18 107.95-13.18ZM132.95-13.18L132.95-13.18 142.04-13.18Q143.4-13.18 144.18-13.92 144.97-14.65 144.97-15.63 144.97-16.6 144.18-17.33 143.4-18.07 142.04-18.07L142.04-18.07 132.95-18.07Q131.59-18.07 130.81-17.33 130.02-16.6 130.02-15.63 130.02-14.65 130.81-13.92 131.59-13.18 132.95-13.18ZM107.95-19.43L107.95-19.43 117.04-19.43Q118.4-19.43 119.18-20.17 119.97-20.9 119.97-21.88 119.97-22.85 119.18-23.58 118.4-24.32 117.04-24.32L117.04-24.32 107.95-24.32Q106.59-24.32 105.81-23.58 105.02-22.85 105.02-21.88 105.02-20.9 105.81-20.17 106.59-19.43 107.95-19.43ZM132.95-19.43L132.95-19.43 142.04-19.43Q143.4-19.43 144.18-20.17 144.97-20.9 144.97-21.88 144.97-22.85 144.18-23.58 143.4-24.32 142.04-24.32L142.04-24.32 132.95-24.32Q131.59-24.32 130.81-23.58 130.02-22.85 130.02-21.88 130.02-20.9 130.81-20.17 131.59-19.43 132.95-19.43ZM114.2-25.68L114.2-25.68 135.79-25.68Q137.15-25.68 137.93-26.42 138.72-27.15 138.72-28.13 138.72-29.1 137.93-29.83 137.15-30.57 135.79-30.57L135.79-30.57 114.2-30.57Q112.84-30.57 112.06-29.83 111.27-29.1 111.27-28.13 111.27-27.15 112.06-26.42 112.84-25.68 114.2-25.68ZM157.95-0.68L157.95-0.68 167.03-0.68Q168.4-0.68 169.18-1.42 169.96-2.15 169.96-3.13 169.96-4.1 169.18-4.83 168.4-5.57 167.03-5.57L167.03-5.57 157.95-5.57Q156.58-5.57 155.8-4.83 155.02-4.1 155.02-3.13 155.02-2.15 155.8-1.42 156.58-0.68 157.95-0.68ZM182.95-0.68L182.95-0.68 192.03-0.68Q193.4-0.68 194.18-1.42 194.96-2.15 194.96-3.13 194.96-4.1 194.18-4.83 193.4-5.57 192.03-5.57L192.03-5.57 182.95-5.57Q181.58-5.57 180.8-4.83 180.02-4.1 180.02-3.13 180.02-2.15 180.8-1.42 181.58-0.68 182.95-0.68ZM157.95-6.93L157.95-6.93 167.03-6.93Q168.4-6.93 169.18-7.67 169.96-8.4 169.96-9.38 169.96-10.35 169.18-11.08 168.4-11.82 167.03-11.82L167.03-11.82 157.95-11.82Q156.58-11.82 155.8-11.08 155.02-10.35 155.02-9.38 155.02-8.4 155.8-7.67 156.58-6.93 157.95-6.93ZM182.95-6.93L182.95-6.93 192.03-6.93Q193.4-6.93 194.18-7.67 194.96-8.4 194.96-9.38 194.96-10.35 194.18-11.08 193.4-11.82 192.03-11.82L192.03-11.82 182.95-11.82Q181.58-11.82 180.8-11.08 180.02-10.35 180.02-9.38 180.02-8.4 180.8-7.67 181.58-6.93 182.95-6.93ZM157.95-13.18L157.95-13.18 167.03-13.18Q168.4-13.18 169.18-13.92 169.96-14.65 169.96-15.63 169.96-16.6 169.18-17.33 168.4-18.07 167.03-18.07L167.03-18.07 157.95-18.07Q156.58-18.07 155.8-17.33 155.02-16.6 155.02-15.63 155.02-14.65 155.8-13.92 156.58-13.18 157.95-13.18ZM182.95-13.18L182.95-13.18 192.03-13.18Q193.4-13.18 194.18-13.92 194.96-14.65 194.96-15.63 194.96-16.6 194.18-17.33 193.4-18.07 192.03-18.07L192.03-18.07 182.95-18.07Q181.58-18.07 180.8-17.33 180.02-16.6 180.02-15.63 180.02-14.65 180.8-13.92 181.58-13.18 182.95-13.18ZM157.95-19.43L157.95-19.43 167.03-19.43Q168.4-19.43 169.18-20.17 169.96-20.9 169.96-21.88 169.96-22.85 169.18-23.58 168.4-24.32 167.03-24.32L167.03-24.32 157.95-24.32Q156.58-24.32 155.8-23.58 155.02-22.85 155.02-21.88 155.02-20.9 155.8-20.17 156.58-19.43 157.95-19.43ZM182.95-19.43L182.95-19.43 192.03-19.43Q193.4-19.43 194.18-20.17 194.96-20.9 194.96-21.88 194.96-22.85 194.18-23.58 193.4-24.32 192.03-24.32L192.03-24.32 182.95-24.32Q181.58-24.32 180.8-23.58 180.02-22.85 180.02-21.88 180.02-20.9 180.8-20.17 181.58-19.43 182.95-19.43ZM157.95-25.68L157.95-25.68 185.78-25.68Q187.15-25.68 187.93-26.42 188.71-27.15 188.71-28.13 188.71-29.1 187.93-29.83 187.15-30.57 185.78-30.57L185.78-30.57 157.95-30.57Q156.58-30.57 155.8-29.83 155.02-29.1 155.02-28.13 155.02-27.15 155.8-26.42 156.58-25.68 157.95-25.68ZM207.95-0.68L207.95-0.68 217.03-0.68Q218.4-0.68 219.18-1.42 219.96-2.15 219.96-3.13 219.96-4.1 219.18-4.83 218.4-5.57 217.03-5.57L217.03-5.57 207.95-5.57Q206.58-5.57 205.8-4.83 205.02-4.1 205.02-3.13 205.02-2.15 205.8-1.42 206.58-0.68 207.95-0.68ZM232.95-0.68L232.95-0.68 242.03-0.68Q243.4-0.68 244.18-1.42 244.96-2.15 244.96-3.13 244.96-4.1 244.18-4.83 243.4-5.57 242.03-5.57L242.03-5.57 232.95-5.57Q231.58-5.57 230.8-4.83 230.02-4.1 230.02-3.13 230.02-2.15 230.8-1.42 231.58-0.68 232.95-0.68ZM207.95-6.93L207.95-6.93 217.03-6.93Q218.4-6.93 219.18-7.67 219.96-8.4 219.96-9.38 219.96-10.35 219.18-11.08 218.4-11.82 217.03-11.82L217.03-11.82 207.95-11.82Q206.58-11.82 205.8-11.08 205.02-10.35 205.02-9.38 205.02-8.4 205.8-7.67 206.58-6.93 207.95-6.93ZM226.7-6.93L226.7-6.93 235.78-6.93Q237.15-6.93 237.93-7.67 238.71-8.4 238.71-9.38 238.71-10.35 237.93-11.08 237.15-11.82 235.78-11.82L235.78-11.82 226.7-11.82Q225.33-11.82 224.55-11.08 223.77-10.35 223.77-9.38 223.77-8.4 224.55-7.67 225.33-6.93 226.7-6.93ZM207.95-13.18L207.95-13.18 229.53-13.18Q230.9-13.18 231.68-13.92 232.46-14.65 232.46-15.63 232.46-16.6 231.68-17.33 230.9-18.07 229.53-18.07L229.53-18.07 207.95-18.07Q206.58-18.07 205.8-17.33 205.02-16.6 205.02-15.63 205.02-14.65 205.8-13.92 206.58-13.18 207.95-13.18ZM207.95-19.43L207.95-19.43 217.03-19.43Q218.4-19.43 219.18-20.17 219.96-20.9 219.96-21.88 219.96-22.85 219.18-23.58 218.4-24.32 217.03-24.32L217.03-24.32 207.95-24.32Q206.58-24.32 205.8-23.58 205.02-22.85 205.02-21.88 205.02-20.9 205.8-20.17 206.58-19.43 207.95-19.43ZM226.7-19.43L226.7-19.43 235.78-19.43Q237.15-19.43 237.93-20.17 238.71-20.9 238.71-21.88 238.71-22.85 237.93-23.58 237.15-24.32 235.78-24.32L235.78-24.32 226.7-24.32Q225.33-24.32 224.55-23.58 223.77-22.85 223.77-21.88 223.77-20.9 224.55-20.17 225.33-19.43 226.7-19.43ZM207.95-25.68L207.95-25.68 217.03-25.68Q218.4-25.68 219.18-26.42 219.96-27.15 219.96-28.13 219.96-29.1 219.18-29.83 218.4-30.57 217.03-30.57L217.03-30.57 207.95-30.57Q206.58-30.57 205.8-29.83 205.02-29.1 205.02-28.13 205.02-27.15 205.8-26.42 206.58-25.68 207.95-25.68ZM207.95-31.93L207.95-31.93 217.03-31.93Q218.4-31.93 219.18-32.67 219.96-33.4 219.96-34.38 219.96-35.35 219.18-36.08 218.4-36.82 217.03-36.82L217.03-36.82 207.95-36.82Q206.58-36.82 205.8-36.08 205.02-35.35 205.02-34.38 205.02-33.4 205.8-32.67 206.58-31.93 207.95-31.93ZM264.2-0.68L264.2-0.68 292.03-0.68Q293.4-0.68 294.18-1.42 294.96-2.15 294.96-3.13 294.96-4.1 294.18-4.83 293.4-5.57 292.03-5.57L292.03-5.57 264.2-5.57Q262.83-5.57 262.05-4.83 261.27-4.1 261.27-3.13 261.27-2.15 262.05-1.42 262.83-0.68 264.2-0.68ZM257.95-6.93L257.95-6.93 267.03-6.93Q268.4-6.93 269.18-7.67 269.96-8.4 269.96-9.38 269.96-10.35 269.18-11.08 268.4-11.82 267.03-11.82L267.03-11.82 257.95-11.82Q256.58-11.82 255.8-11.08 255.02-10.35 255.02-9.38 255.02-8.4 255.8-7.67 256.58-6.93 257.95-6.93ZM282.95-6.93L282.95-6.93 292.03-6.93Q293.4-6.93 294.18-7.67 294.96-8.4 294.96-9.38 294.96-10.35 294.18-11.08 293.4-11.82 292.03-11.82L292.03-11.82 282.95-11.82Q281.58-11.82 280.8-11.08 280.02-10.35 280.02-9.38 280.02-8.4 280.8-7.67 281.58-6.93 282.95-6.93ZM264.2-13.18L264.2-13.18 292.03-13.18Q293.4-13.18 294.18-13.92 294.96-14.65 294.96-15.63 294.96-16.6 294.18-17.33 293.4-18.07 292.03-18.07L292.03-18.07 264.2-18.07Q262.83-18.07 262.05-17.33 261.27-16.6 261.27-15.63 261.27-14.65 262.05-13.92 262.83-13.18 264.2-13.18ZM282.95-19.43L282.95-19.43 292.03-19.43Q293.4-19.43 294.18-20.17 294.96-20.9 294.96-21.88 294.96-22.85 294.18-23.58 293.4-24.32 292.03-24.32L292.03-24.32 282.95-24.32Q281.58-24.32 280.8-23.58 280.02-22.85 280.02-21.88 280.02-20.9 280.8-20.17 281.58-19.43 282.95-19.43ZM264.2-25.68L264.2-25.68 285.78-25.68Q287.15-25.68 287.93-26.42 288.71-27.15 288.71-28.13 288.71-29.1 287.93-29.83 287.15-30.57 285.78-30.57L285.78-30.57 264.2-30.57Q262.83-30.57 262.05-29.83 261.27-29.1 261.27-28.13 261.27-27.15 262.05-26.42 262.83-25.68 264.2-25.68Z" opacity="1" transform="matrix(1,0,0,1,0,0)" fill="#3cb371" class="wordmark-text-0" data-fill-palette-color="primary" id="text-0"></path></svg></g></svg></g></svg></g></svg></g><g transform="matrix(1,0,0,1,133.86875595276734,0)"><svg viewBox="0 0 48.67848809446534 63.92136066284945" height="63.92136066284945" width="48.67848809446534"><g><svg xmlns="http://www.w3.org/2000/svg" xmlns:xlink="http://www.w3.org/1999/xlink" version="1.1" x="0" y="0" viewBox="18.084 8.089863346222403 63.8313828644866 83.8191366537776" enable-background="new 0 0 100 100" xml:space="preserve" height="63.92136066284945" width="48.67848809446534" class="icon-icon-0" data-fill-palette-color="accent" id="icon-0"><g fill="#a1ffcb" data-fill-palette-color="accent"><path fill="#a1ffcb" d="M75.831 81.262C75.37 85.817 71.71 89.089 67.652 88.571L33.122 84.153C29.067 83.632 26.154 79.521 26.615 74.966L32.65 15.451C33.114 10.896 36.773 7.625 40.832 8.144L75.361 12.561C79.418 13.081 82.33 17.193 81.867 21.748z" data-fill-palette-color="accent"></path><path fill="#a1ffcb" d="M28.725 87.08C24.67 86.561 21.756 82.448 22.217 77.893L28.253 18.379A9 9 0 0 1 29.082 15.41H25.475C21.392 15.41 18.084 19.126 18.084 23.711V83.607C18.084 88.193 21.392 91.909 25.475 91.909H60.229C61.095 91.909 61.922 91.732 62.696 91.425z" data-fill-palette-color="accent"></path></g></svg></g></svg></g><g></g></svg></g></svg></g></svg></g></svg></g><defs></defs></svg><rect width="375.07953" height="239.9014588" fill="none" stroke="none" visibility="hidden"></rect></g></svg></g></svg>